<?xml version="1.0" standalone="no"?>
<!DOCTYPE svg PUBLIC "-//W3C//DTD SVG 20010904//EN"
 "http://www.w3.org/TR/2001/REC-SVG-20010904/DTD/svg10.dtd">
<svg version="1.0" xmlns="http://www.w3.org/2000/svg"
 width="700.000000pt" height="700.000000pt" viewBox="0 0 700.000000 700.000000"
 preserveAspectRatio="xMidYMid meet">
<metadata>
Created by potrace 1.14, written by Peter Selinger 2001-2017
</metadata>
<g transform="translate(0.000000,700.000000) scale(0.100000,-0.100000)"
fill="#000000" stroke="none">
<path d="M3140 5894 c-372 -47 -709 -200 -1028 -469 -239 -201 -394 -386 -506
-605 -123 -240 -165 -400 -173 -655 -6 -188 3 -282 42 -443 24 -101 97 -308
114 -325 4 -4 37 2 72 14 52 17 79 20 144 16 44 -3 92 -10 108 -16 l27 -11 0
-127 c0 -71 3 -146 7 -168 l6 -39 -49 36 c-91 66 -283 146 -328 136 -9 -2 30
-34 92 -75 106 -71 242 -184 280 -233 10 -14 22 -42 26 -62 l7 -38 -49 0 c-61
0 -185 -31 -263 -66 -33 -15 -58 -28 -56 -30 2 -2 35 3 73 11 69 15 249 20
291 9 12 -3 24 -16 26 -28 2 -11 7 6 11 39 34 261 116 486 240 658 31 43 56
84 56 91 0 20 120 133 199 188 90 62 196 114 373 183 655 253 960 442 1128
697 71 108 113 219 136 362 10 59 21 101 25 94 4 -7 21 -54 37 -105 49 -144
66 -251 66 -403 0 -153 -13 -220 -69 -337 l-34 -73 37 0 c51 0 155 26 200 49
42 22 93 73 114 115 15 28 15 28 40 -65 43 -156 51 -200 52 -286 1 -46 5 -83
9 -83 17 0 63 29 89 57 30 31 58 91 58 123 0 12 4 19 8 16 9 -5 19 -107 28
-276 11 -220 75 -912 91 -990 13 -63 18 -132 18 -267 0 -202 0 -202 59 -104
44 72 73 144 101 256 l23 90 63 3 c56 3 123 -5 209 -24 16 -3 8 4 -20 19 -41
23 -140 56 -213 71 l-27 6 6 83 6 82 56 52 c31 29 102 83 159 120 60 39 97 69
88 71 -26 6 -156 -37 -232 -78 l-73 -37 0 72 c0 39 -3 106 -6 148 l-7 75 54 9
54 8 41 125 c144 428 162 861 50 1179 -118 336 -376 577 -763 711 -51 18 -91
36 -88 40 7 11 -202 144 -320 203 -183 91 -334 141 -545 182 -82 16 -375 28
-450 19z"/>
<path d="M3944 3872 c-28 -10 -64 -28 -80 -41 -38 -29 -81 -94 -94 -140 -19
-70 -23 -68 108 -63 125 4 375 -17 550 -47 57 -9 105 -14 107 -11 9 15 -74
136 -128 186 -124 115 -321 165 -463 116z"/>
<path d="M2905 3823 c-201 -28 -356 -150 -426 -333 -23 -60 -24 -59 93 -25
228 66 481 115 594 115 84 0 85 2 55 73 -51 119 -182 189 -316 170z"/>
<path d="M2766 3338 c-93 -123 -30 -399 80 -350 43 20 69 93 69 192 -1 85 -14
128 -53 173 -25 28 -67 22 -96 -15z"/>
<path d="M4138 3353 c-39 -45 -52 -88 -53 -173 0 -137 53 -222 120 -192 81 37
100 267 28 353 -29 33 -71 39 -95 12z"/>
<path d="M3503 3038 c-71 -19 -142 -166 -130 -270 9 -72 47 -131 102 -158 53
-26 93 -21 144 18 97 73 94 268 -6 374 -33 35 -70 47 -110 36z"/>
<path d="M2593 2838 c-6 -7 -38 -71 -71 -142 -49 -103 -59 -133 -51 -148 6
-12 19 -18 32 -16 32 4 162 270 147 299 -12 22 -43 25 -57 7z"/>
<path d="M2852 2838 c-5 -7 -37 -71 -71 -142 -48 -102 -58 -132 -50 -147 12
-24 45 -25 59 -1 6 9 37 73 70 141 47 97 57 128 49 142 -11 22 -42 25 -57 7z"/>
<path d="M4162 2838 c-7 -7 -12 -17 -12 -23 0 -7 29 -73 65 -148 58 -121 68
-137 90 -137 46 0 41 35 -26 175 -70 148 -85 165 -117 133z"/>
<path d="M4350 2831 c-15 -29 115 -295 147 -299 13 -2 26 4 32 16 8 15 -2 45
-51 148 -33 71 -65 135 -71 142 -14 18 -45 15 -57 -7z"/>
<path d="M2938 2519 c-49 -28 -4 -74 134 -139 220 -103 514 -136 772 -86 84
17 106 28 106 56 0 38 -24 43 -112 23 -116 -25 -370 -25 -488 1 -110 24 -224
65 -316 116 -40 22 -74 40 -76 40 -2 0 -11 -5 -20 -11z"/>
<path d="M3050 2075 l0 -125 385 0 385 0 0 125 0 125 -385 0 -385 0 0 -125z"/>
<path d="M3965 1274 c-60 -13 -166 -29 -234 -35 -150 -14 -485 -6 -616 16 -49
8 -97 14 -107 15 -9 0 -37 -29 -64 -67 -144 -202 -379 -365 -774 -538 -106
-47 -240 -110 -297 -142 -95 -52 -103 -58 -86 -71 30 -23 303 -155 393 -191
316 -125 624 -202 980 -242 157 -18 557 -15 725 5 369 45 686 130 1015 271
107 46 360 177 360 186 0 10 -233 128 -355 179 -219 93 -405 196 -540 300 -44
33 -82 60 -85 60 -3 0 -13 -20 -23 -45 -49 -118 -164 -255 -279 -331 -130 -87
-257 -125 -416 -125 -292 0 -555 172 -683 445 l-32 67 34 35 c18 18 35 32 37
29 3 -3 18 -34 33 -70 74 -176 232 -322 413 -382 70 -23 98 -27 201 -27 103 0
131 4 201 27 179 59 339 206 414 382 33 78 33 103 -5 150 -18 22 -45 59 -60
83 -15 23 -30 41 -34 41 -3 -1 -55 -12 -116 -25z"/>
</g>
</svg>
